<?xml version="1.0" standalone="no"?>
<!DOCTYPE svg PUBLIC "-//W3C//DTD SVG 20010904//EN"
 "http://www.w3.org/TR/2001/REC-SVG-20010904/DTD/svg10.dtd">
<svg version="1.0" xmlns="http://www.w3.org/2000/svg"
 width="586.000000pt" height="562.000000pt" viewBox="0 0 586.000000 562.000000"
 preserveAspectRatio="xMidYMid meet">

<g transform="translate(0.000000,562.000000) scale(0.100000,-0.100000)"
fill="#022A4B" stroke="none">
<path d="M2750 5283 c-604 -41 -1104 -235 -1545 -598 -465 -383 -780 -919
-890 -1515 -42 -228 -51 -538 -21 -760 78 -579 323 -1079 730 -1485 218 -218
440 -376 711 -506 299 -144 574 -219 910 -250 150 -14 474 -6 615 16 144 22
412 89 529 131 235 87 544 263 746 427 112 90 305 285 388 392 326 418 501
864 549 1398 l11 127 69 0 68 0 -33 53 c-19 28 -59 97 -90 152 -31 55 -67 115
-80 132 l-24 33 -36 -55 c-20 -31 -32 -53 -27 -50 6 3 7 -1 4 -9 -3 -9 -10
-13 -15 -10 -5 3 -9 -1 -9 -10 0 -8 -3 -16 -7 -18 -13 -5 -42 -67 -39 -81 1
-6 1 -8 -2 -3 -4 8 -62 -76 -62 -91 0 -3 -7 -15 -17 -25 -15 -17 -13 -18 50
-18 78 0 72 17 57 -165 -34 -390 -154 -725 -385 -1075 -246 -373 -595 -669
-1009 -857 -326 -148 -640 -214 -1011 -214 -364 0 -687 67 -1001 209 -769 347
-1295 1050 -1400 1873 -23 184 -16 512 16 689 166 937 879 1687 1815 1910 211
51 330 64 565 64 283 1 484 -30 762 -115 82 -25 137 -37 153 -33 61 15 86 104
41 149 -39 39 -341 126 -551 159 -181 28 -389 39 -535 29z"/>
<path d="M3720 3869 c-141 -17 -262 -62 -386 -144 -66 -44 -164 -137 -446
-421 -199 -200 -365 -364 -369 -364 -4 0 -193 203 -420 450 l-413 450 -213 0
-213 0 0 -1125 0 -1125 260 0 260 0 0 748 1 747 379 -385 379 -385 178 175
c98 97 233 230 301 295 68 66 202 203 297 305 268 285 354 350 463 350 64 0
116 -25 162 -76 44 -51 60 -93 60 -159 0 -110 -65 -203 -232 -330 -190 -145
-654 -523 -711 -579 -168 -165 -287 -410 -287 -588 l0 -58 918 2 917 3 3 252
2 253 -470 2 -471 3 306 234 c393 300 478 385 566 567 75 155 84 269 33 423
-104 316 -475 524 -854 480z"/>
</g>
</svg>
